<?xml version="1.0" encoding="UTF-8" standalone="no"?>
<!DOCTYPE svg PUBLIC "-//W3C//DTD SVG 1.1//EN" "http://www.w3.org/Graphics/SVG/1.1/DTD/svg11.dtd">
<svg width="100%" height="100%" viewBox="0 0 88 88" version="1.1" xmlns="http://www.w3.org/2000/svg" xmlns:xlink="http://www.w3.org/1999/xlink" xml:space="preserve" xmlns:serif="http://www.serif.com/" style="fill-rule:evenodd;clip-rule:evenodd;stroke-linejoin:round;stroke-miterlimit:2;">
    <g transform="matrix(1,0,0,1,-6.25,-6.25)">
        <path d="M50,6.25C25.84,6.25 6.25,26.328 6.25,51.113C6.25,70.938 18.789,87.734 36.172,93.672C38.359,94.082 39.16,92.695 39.16,91.504C39.16,90.43 39.121,87.617 39.102,83.867C26.934,86.582 24.355,77.852 24.355,77.852C22.363,72.676 19.492,71.289 19.492,71.289C15.527,68.496 19.785,68.555 19.785,68.555C24.18,68.867 26.484,73.184 26.484,73.184C30.391,80.039 36.719,78.066 39.219,76.914C39.609,74.023 40.742,72.031 41.992,70.918C32.285,69.785 22.07,65.938 22.07,48.75C22.07,43.848 23.77,39.844 26.562,36.719C26.113,35.586 24.609,31.016 26.992,24.844C26.992,24.844 30.664,23.633 39.023,29.434C42.52,28.438 46.25,27.949 49.98,27.93C53.691,27.949 57.441,28.438 60.937,29.434C69.297,23.633 72.949,24.844 72.949,24.844C75.332,31.016 73.828,35.586 73.379,36.719C76.172,39.863 77.871,43.867 77.871,48.75C77.871,65.977 67.637,69.766 57.891,70.879C59.453,72.266 60.859,75 60.859,79.18C60.859,85.176 60.801,90.02 60.801,91.484C60.801,92.676 61.582,94.082 63.809,93.633C81.23,87.715 93.75,70.918 93.75,51.113C93.75,26.328 74.16,6.25 50,6.25Z"/>
    </g>
</svg>
